<?xml version="1.0" encoding="utf-8"?>
<!-- Generator: Adobe Illustrator 25.4.1, SVG Export Plug-In . SVG Version: 6.00 Build 0)  -->
<svg version="1.1" id="Calque_1" xmlns="http://www.w3.org/2000/svg" xmlns:xlink="http://www.w3.org/1999/xlink" x="0px" y="0px"
	 viewBox="0 0 181.83 44.04" style="enable-background:new 0 0 181.83 44.04;" xml:space="preserve">
<style type="text/css">
	.st0{fill:#FFFFFF;}
</style>
<g>
	<path class="st0" d="M19.66,44.04c-1.02,0-2.33-0.08-3.95-0.24c-1.62-0.16-3.32-0.43-5.12-0.8c-1.8-0.37-3.51-0.88-5.12-1.52
		c-1.62-0.65-2.93-1.47-3.95-2.46C0.51,38.02,0,36.84,0,35.45c0-1.94,0.55-3.57,1.66-4.88c1.11-1.32,2.52-2.39,4.22-3.22
		c1.71-0.83,3.5-1.46,5.37-1.9c1.87-0.44,3.57-0.7,5.09-0.8c0.46-0.83,1.08-1.93,1.87-3.29c0.78-1.36,1.65-2.84,2.6-4.43
		c0.95-1.59,1.91-3.15,2.91-4.67c0.99-1.52,1.93-2.9,2.8-4.12C27.39,6.91,28.13,6,28.73,5.4c0.69-0.65,1.42-1.08,2.18-1.32
		c0.76-0.23,1.6-0.35,2.53-0.35c0.37,0,0.89,0.08,1.56,0.24c0.67,0.16,1.03,0.45,1.07,0.87c-0.09,0.42-0.36,0.84-0.8,1.28
		c-0.44,0.44-0.8,0.82-1.07,1.14c-3.05,3.37-5.64,6.44-7.79,9.21c-2.15,2.77-4.03,5.47-5.64,8.1c2.49,0.05,5.12,0.27,7.89,0.66
		c2.77,0.39,5.52,0.97,8.24,1.73c2.72,0.76,5.26,1.75,7.62,2.98c2.35,1.22,4.34,2.69,5.95,4.4c1.29-0.78,2.71-1.77,4.26-2.94
		c1.55-1.18,3.02-2.5,4.43-3.98c1.41-1.48,2.57-3.07,3.5-4.78c0.92-1.71,1.38-3.46,1.38-5.26c0-2.45-0.74-4.55-2.22-6.3
		c-1.48-1.75-3.42-3.21-5.82-4.36c-2.4-1.15-4.96-2.05-7.69-2.7c-2.72-0.65-5.37-1.11-7.93-1.38c-2.56-0.28-4.74-0.42-6.54-0.42
		c-3.56,0-7.03,0.34-10.42,1c-3.39,0.67-6.77,1.6-10.14,2.8c-0.46,0.14-1.07,0.38-1.83,0.73C10.7,7.1,9.95,7.41,9.21,7.69
		C8.47,7.96,7.89,8.1,7.48,8.1c-1.02,0-1.52-0.48-1.52-1.45c0-0.92,0.55-1.73,1.66-2.42c1.11-0.69,2.57-1.29,4.4-1.8
		c1.82-0.51,3.8-0.91,5.92-1.21c2.12-0.3,4.2-0.54,6.23-0.73C26.2,0.3,28.01,0.17,29.6,0.1C31.19,0.03,32.33,0,33.03,0
		c1.85,0,3.98,0.1,6.4,0.31s4.96,0.55,7.62,1.04c2.65,0.48,5.24,1.15,7.75,2.01c2.52,0.85,4.79,1.93,6.82,3.22
		c2.03,1.29,3.66,2.86,4.88,4.71c1.22,1.85,1.83,3.99,1.83,6.44c0,2.12-0.53,4.15-1.59,6.09c-1.06,1.94-2.42,3.74-4.09,5.4
		s-3.39,3.15-5.19,4.47c-1.8,1.32-3.46,2.41-4.99,3.29c0.14,0.19,0.27,0.39,0.38,0.62c0.11,0.23,0.17,0.46,0.17,0.69
		c0,0.42-0.3,0.62-0.9,0.62c-0.18,0-0.42-0.13-0.69-0.38c-0.28-0.25-0.48-0.45-0.62-0.59c-4.99,2.4-10.05,4.02-15.2,4.85
		C30.48,43.62,25.16,44.04,19.66,44.04z M11.49,41.41c-0.23-0.23-0.39-0.52-0.48-0.87c-0.09-0.35-0.14-0.68-0.14-1
		c0-0.74,0.16-1.67,0.48-2.8c0.32-1.13,0.73-2.33,1.21-3.6c0.48-1.27,0.97-2.46,1.45-3.57c0.48-1.11,0.89-2.01,1.21-2.7
		c-1.48,0.23-3.04,0.68-4.67,1.35c-1.64,0.67-3.02,1.6-4.15,2.8c-1.13,1.2-1.7,2.72-1.7,4.57c0,1.02,0.4,1.93,1.21,2.73
		c0.81,0.81,1.74,1.47,2.8,1.97C9.79,40.8,10.71,41.17,11.49,41.41z M20.29,42.37c4.85,0,9.66-0.62,14.44-1.87
		c4.78-1.25,9.34-2.95,13.67-5.12c-1.99-1.8-4.44-3.36-7.37-4.67c-2.93-1.32-6-2.33-9.21-3.05c-3.21-0.72-6.22-1.07-9.04-1.07
		c-0.42,0-0.83,0-1.25,0s-0.81,0.02-1.18,0.07l-0.76,0.07c-0.79,1.34-1.6,2.77-2.46,4.29c-0.85,1.52-1.57,3.09-2.15,4.71
		c-0.58,1.62-0.87,3.21-0.87,4.78c0,0.74-0.32,1.18-0.97,1.32c1.2,0.23,2.39,0.38,3.57,0.45C17.9,42.34,19.09,42.37,20.29,42.37z"/>
	<path class="st0" d="M74.09,40.85c-1.06,0-1.9-0.27-2.53-0.8s-0.93-1.35-0.93-2.46c0-1.75,0.45-3.43,1.35-5.02
		c0.9-1.59,1.86-3.03,2.87-4.33c-0.05-0.23-0.08-0.47-0.1-0.73c-0.02-0.25-0.03-0.5-0.03-0.73c0-1.34,0.36-2.58,1.07-3.74
		c0.72-1.15,1.66-2.09,2.84-2.8c1.18-0.72,2.41-1.07,3.7-1.07c1.62,0,2.83,0.45,3.64,1.35c0.81,0.9,1.21,2.16,1.21,3.77
		c0,1.71-0.4,3.45-1.21,5.23c-0.81,1.78-1.65,3.38-2.53,4.81c0.23,0.14,0.59,0.28,1.07,0.42c0.48,0.14,0.91,0.21,1.28,0.21
		c1.62,0,3.01-0.29,4.19-0.87c1.18-0.58,2.57-1.6,4.19-3.08c0.23-0.23,0.42-0.35,0.55-0.35c0.18,0,0.28,0.16,0.28,0.48
		c0,0.37-0.16,0.74-0.48,1.11c-1.02,1.25-2.35,2.26-4.02,3.05c-1.66,0.79-3.28,1.18-4.85,1.18c-0.55,0-1.11-0.05-1.66-0.14
		c-0.55-0.09-1.09-0.23-1.59-0.42c-1.02,1.29-2.22,2.44-3.6,3.43C77.41,40.35,75.84,40.85,74.09,40.85z M75.75,38.84
		c0.46,0,1.04-0.24,1.73-0.73c0.69-0.48,1.35-1.03,1.97-1.63c0.62-0.6,1.07-1.08,1.35-1.45c-0.65-0.37-1.42-0.97-2.32-1.8
		c-0.9-0.83-1.6-1.55-2.11-2.15c-0.28,0.32-0.58,0.87-0.9,1.63c-0.32,0.76-0.6,1.56-0.83,2.39c-0.23,0.83-0.35,1.52-0.35,2.08
		C74.29,38.29,74.78,38.84,75.75,38.84z M81.56,33.44c0.55-1.11,1.04-2.38,1.45-3.81c0.42-1.43,0.67-2.88,0.76-4.36
		c0.09-0.78-0.08-1.59-0.52-2.42c-0.44-0.83-1.19-1.25-2.25-1.25c-1.02,0-1.86,0.37-2.53,1.11c-0.67,0.74-1.07,1.71-1.21,2.91
		c0.32-0.23,0.75-0.44,1.28-0.62c0.53-0.18,0.98-0.28,1.35-0.28c0.6,0,1.08,0.15,1.45,0.45c0.37,0.3,0.55,0.64,0.55,1
		c0,0.46-0.3,0.79-0.9,0.97c-0.55,0.18-1.14,0.53-1.77,1.04c-0.62,0.51-1.07,0.97-1.35,1.38c0.37,0.74,0.9,1.45,1.59,2.15
		C80.18,32.4,80.87,32.98,81.56,33.44z"/>
	<path class="st0" d="M107.11,41.13c-1.62,0-2.98-0.37-4.09-1.11c-1.11-0.74-1.66-1.98-1.66-3.74c0-1.11,0.44-2.58,1.32-4.43
		c0.88-1.85,1.96-3.55,3.25-5.12c-0.23,0.05-0.52,0.08-0.87,0.1c-0.35,0.02-0.73,0.03-1.14,0.03c-0.69,0-1.38-0.1-2.08-0.31
		c-0.69-0.21-1.15-0.61-1.38-1.21c-0.18,0.23-0.65,0.81-1.38,1.73C98.34,28,97.5,29,96.55,30.08c-0.95,1.09-1.81,2.02-2.6,2.8
		c-0.79,0.79-1.32,1.18-1.59,1.18c-0.09,0-0.21-0.05-0.35-0.14c-0.14-0.09-0.21-0.21-0.21-0.35c0-0.23,0.24-0.58,0.73-1.04
		c0.48-0.46,0.84-0.81,1.07-1.04c1.75-1.89,3.06-3.45,3.91-4.67c0.85-1.22,1.44-2.13,1.77-2.73c-0.28-0.42-0.42-1.06-0.42-1.94
		c0-0.97,0.15-2,0.45-3.08c0.3-1.08,0.72-2.02,1.25-2.8c0.53-0.78,1.14-1.18,1.84-1.18c0.78,0,1.43,0.42,1.94,1.25
		c0.51,0.83,0.76,1.59,0.76,2.28c0,0.55-0.21,1.15-0.62,1.8c-0.42,0.65-0.89,1.27-1.42,1.87c-0.53,0.6-0.98,1.09-1.35,1.45
		c0.42,1.11,1.22,1.66,2.42,1.66c0.83,0,1.52-0.23,2.08-0.69c0.55-0.46,1.06-0.91,1.52-1.35c0.46-0.44,0.95-0.66,1.45-0.66
		c0.65,0,1.22,0.22,1.73,0.66c0.51,0.44,0.74,0.98,0.69,1.63c-0.79,0.83-1.65,1.95-2.6,3.36c-0.95,1.41-1.74,2.86-2.39,4.36
		c-0.65,1.5-0.97,2.85-0.97,4.05c0,0.88,0.27,1.48,0.8,1.8c0.53,0.32,1.23,0.48,2.11,0.48c0.83,0,1.71-0.23,2.63-0.69
		c0.92-0.46,1.85-1.01,2.77-1.66c0.6-0.42,1.49-1.18,2.67-2.28c1.18-1.11,2.55-2.52,4.12-4.22c0.09-0.09,0.18-0.14,0.28-0.14
		c0.37,0,0.55,0.25,0.55,0.76c0,0.14-0.28,0.52-0.83,1.14c-0.55,0.62-1.21,1.33-1.97,2.11c-0.76,0.79-1.49,1.51-2.18,2.18
		c-0.69,0.67-1.2,1.12-1.52,1.35c-1.15,0.88-2.39,1.69-3.7,2.42C110.06,40.76,108.64,41.13,107.11,41.13z"/>
	<path class="st0" d="M123.66,41.13c-1.62,0-2.97-0.43-4.05-1.28c-1.08-0.85-1.51-2.27-1.28-4.26c0.09-0.65,0.32-1.56,0.69-2.73
		c0.37-1.18,0.84-2.38,1.42-3.6c0.58-1.22,1.21-2.27,1.9-3.15c0.69-0.88,1.38-1.32,2.08-1.32c0.55,0,1.08,0.17,1.59,0.52
		c0.51,0.35,0.76,0.82,0.76,1.42c0,0.32-0.23,0.77-0.69,1.35c-0.46,0.58-1,1.29-1.63,2.15c-0.62,0.85-1.17,1.8-1.63,2.84
		c-0.46,1.04-0.69,2.16-0.69,3.36c0,1.11,0.24,1.86,0.73,2.25c0.48,0.39,1.07,0.59,1.77,0.59c0.88,0,1.82-0.24,2.84-0.73
		c1.01-0.48,2.03-1.1,3.05-1.83c0.6-0.42,1.49-1.18,2.67-2.28c1.18-1.11,2.55-2.52,4.12-4.22c0.09-0.09,0.18-0.14,0.28-0.14
		c0.37,0,0.55,0.25,0.55,0.76c0,0.14-0.28,0.52-0.83,1.14c-0.55,0.62-1.21,1.33-1.97,2.11c-0.76,0.79-1.49,1.51-2.18,2.18
		c-0.69,0.67-1.2,1.12-1.52,1.35c-1.15,0.88-2.39,1.69-3.7,2.42C126.6,40.76,125.18,41.13,123.66,41.13z M128.72,21.53
		c-0.69,0-1.28-0.24-1.77-0.73c-0.48-0.48-0.73-1.07-0.73-1.77c0-0.69,0.24-1.29,0.73-1.8c0.48-0.51,1.07-0.76,1.77-0.76
		c0.69,0,1.29,0.25,1.8,0.76c0.51,0.51,0.76,1.11,0.76,1.8c0,0.69-0.25,1.28-0.76,1.77C130.01,21.29,129.41,21.53,128.72,21.53z"/>
	<path class="st0" d="M149.21,40.44c-3.6,0-5.4-1.8-5.4-5.4c0-1.11,0.27-2.41,0.8-3.91c0.53-1.5,1.1-2.78,1.7-3.84
		c-2.59,1.99-4.66,3.87-6.23,5.64c-1.57,1.78-2.7,3.08-3.39,3.91c-0.18,0.18-0.42,0.57-0.69,1.14c-0.28,0.58-0.6,1.11-0.97,1.59
		c-0.37,0.48-0.79,0.73-1.25,0.73c-0.46,0-0.79-0.18-0.97-0.55c-0.19-0.37-0.28-0.74-0.28-1.11c0-0.23,0.07-0.48,0.21-0.76
		c0.6-1.06,1.3-2.69,2.11-4.88c0.81-2.19,1.46-4.42,1.97-6.68c0.09-0.37,0.17-0.67,0.24-0.9c0.07-0.23,0.17-0.48,0.31-0.76
		c0.23-0.51,0.73-0.92,1.49-1.25c0.76-0.32,1.37-0.48,1.83-0.48c0.23,0,0.47,0.06,0.73,0.17c0.25,0.12,0.38,0.34,0.38,0.66
		c0,0.23-0.14,0.74-0.42,1.52c-0.28,0.79-0.61,1.66-1,2.63c-0.39,0.97-0.76,1.88-1.11,2.73c-0.35,0.85-0.59,1.44-0.73,1.77
		c0.37-0.32,0.95-0.87,1.73-1.63c0.78-0.76,1.67-1.59,2.67-2.49c0.99-0.9,2-1.77,3.01-2.6c1.01-0.83,1.91-1.52,2.7-2.08
		c0.78-0.55,1.36-0.83,1.73-0.83c0.65,0,1.21,0.15,1.7,0.45c0.48,0.3,0.73,0.82,0.73,1.56c0,0.32-0.25,0.85-0.76,1.59
		c-0.51,0.74-1.11,1.62-1.8,2.63c-0.69,1.02-1.29,2.1-1.8,3.25c-0.51,1.15-0.76,2.31-0.76,3.46c0,0.83,0.22,1.54,0.66,2.11
		c0.44,0.58,1.05,0.87,1.83,0.87c1.25,0,2.45-0.29,3.6-0.87c1.15-0.58,2.22-1.28,3.19-2.11c0.97-0.83,1.82-1.65,2.56-2.46
		c0.74-0.81,1.32-1.44,1.73-1.9c0.05-0.05,0.09-0.07,0.14-0.07c0.09,0,0.21,0.06,0.35,0.17c0.14,0.12,0.21,0.29,0.21,0.52
		c0,0.23-0.09,0.44-0.28,0.62c-1.06,1.25-2.23,2.47-3.5,3.67c-1.27,1.2-2.64,2.19-4.12,2.98C152.58,40.04,150.96,40.44,149.21,40.44
		z"/>
	<path class="st0" d="M167.63,40.44c-2.03,0-3.81-0.48-5.33-1.45c-1.52-0.97-2.29-2.58-2.29-4.85c0-1.38,0.38-2.83,1.14-4.33
		c0.76-1.5,1.77-2.9,3.01-4.19c1.25-1.29,2.6-2.34,4.05-3.15c1.45-0.81,2.9-1.21,4.33-1.21c0.74,0,1.36,0.2,1.87,0.59
		c0.51,0.39,0.76,0.98,0.76,1.77c0,0.92-0.4,1.87-1.21,2.84c-0.81,0.97-1.8,1.88-2.98,2.73c-1.18,0.85-2.37,1.59-3.57,2.22
		c-1.2,0.62-2.19,1.07-2.98,1.35c-0.14,0.55-0.21,1.13-0.21,1.73c0,1.06,0.29,2.01,0.87,2.84c0.58,0.83,1.58,1.25,3.01,1.25
		c1.43,0,2.74-0.29,3.91-0.87c1.18-0.58,2.25-1.29,3.22-2.15c0.97-0.85,1.85-1.67,2.63-2.46c0.65-0.65,1.18-1.19,1.59-1.63
		c0.42-0.44,0.78-0.82,1.11-1.14c0.14-0.14,0.35-0.21,0.62-0.21c0.23,0,0.42,0.08,0.55,0.24c0.14,0.16,0.09,0.36-0.14,0.59
		c-0.18,0.23-0.5,0.57-0.93,1c-0.44,0.44-0.85,0.88-1.25,1.32c-0.39,0.44-0.68,0.75-0.87,0.93c-2.03,2.17-3.97,3.75-5.82,4.74
		C170.9,39.94,169.2,40.44,167.63,40.44z M164.65,31.37c0.46-0.09,1.12-0.38,1.97-0.87c0.85-0.48,1.7-1.05,2.53-1.7
		c0.37-0.32,0.88-0.81,1.52-1.45c0.65-0.65,1.08-1.2,1.32-1.66c0.32-0.6,0.48-1.08,0.48-1.45c0-0.55-0.3-0.83-0.9-0.83
		c-0.32,0-0.67,0.07-1.04,0.21c-0.46,0.19-1.02,0.65-1.66,1.38c-0.65,0.74-1.15,1.32-1.52,1.73c-0.55,0.69-1.07,1.44-1.56,2.25
		C165.31,29.78,164.93,30.58,164.65,31.37z"/>
</g>
</svg>
